<svg width="16" height="16" viewBox="0 0 16 16" fill="none" xmlns="http://www.w3.org/2000/svg">
<g clip-path="url(#clip0_104_280)">
<path d="M13.5864 5.4544C13.4937 5.5264 11.8584 6.4496 11.8584 8.5024C11.8584 10.8768 13.9393 11.7168 14.0016 11.7376C13.992 11.7888 13.671 12.888 12.9044 14.008C12.2209 14.9936 11.507 15.9776 10.421 15.9776C9.33501 15.9776 9.05553 15.3456 7.80184 15.3456C6.5801 15.3456 6.1457 15.9984 5.15233 15.9984C4.15897 15.9984 3.46585 15.0864 2.66892 13.9664C1.74582 12.6512 1 10.608 1 8.6688C1 5.5584 3.01867 3.9088 5.00541 3.9088C6.06106 3.9088 6.94103 4.6032 7.60381 4.6032C8.23464 4.6032 9.21843 3.8672 10.4194 3.8672C10.8746 3.8672 12.5099 3.9088 13.5864 5.4544ZM9.84926 2.5504C10.3459 1.96 10.6973 1.1408 10.6973 0.3216C10.6973 0.208 10.6877 0.0928 10.667 0C9.85884 0.0304 8.89742 0.5392 8.31769 1.2128C7.86253 1.7312 7.43771 2.5504 7.43771 3.3808C7.43771 3.5056 7.45848 3.6304 7.46806 3.6704C7.51916 3.68 7.60221 3.6912 7.68526 3.6912C8.41032 3.6912 9.32224 3.2048 9.84926 2.5504Z" fill="white"/>
</g>
<defs>
<clipPath id="clip0_104_280">
<rect width="13" height="16" fill="white" transform="translate(1)"/>
</clipPath>
</defs>
</svg>
