<svg width="16" height="16" viewBox="0 0 16 16" fill="none" xmlns="http://www.w3.org/2000/svg">
<path d="M2.45179 11.4557L1.84082 11.0207L1.84082 11.0207L2.45179 11.4557ZM3.26932 8.98244L2.51932 8.97384V8.98244H3.26932ZM3.28648 7.48711L4.03648 7.49572V7.48711H3.28648ZM13.5551 11.4677L14.1745 11.0448L14.1745 11.0448L13.5551 11.4677ZM12.7683 8.98244L12.0183 8.97339V8.98244H12.7683ZM12.7855 7.56121L13.5355 7.57027V7.56121H12.7855ZM6.1267 13.6501C5.71248 13.6501 5.3767 13.9859 5.3767 14.4001C5.3767 14.8143 5.71248 15.1501 6.1267 15.1501V13.6501ZM9.87582 15.1501C10.29 15.1501 10.6258 14.8143 10.6258 14.4001C10.6258 13.9859 10.29 13.6501 9.87582 13.6501V15.1501ZM1.30385 3.72406C1.14973 4.10853 1.33647 4.54515 1.72094 4.69927C2.10541 4.85339 2.54203 4.66665 2.69615 4.28218L1.30385 3.72406ZM4.4678 2.26038C4.83246 2.06393 4.96882 1.60905 4.77237 1.24439C4.57592 0.879727 4.12105 0.743364 3.75638 0.939816L4.4678 2.26038ZM12.2357 0.9501C11.8732 0.749785 11.4169 0.881308 11.2166 1.24386C11.0163 1.60642 11.1478 2.06272 11.5103 2.26303L12.2357 0.9501ZM13.3009 4.26817C13.4509 4.65426 13.8855 4.84566 14.2716 4.69565C14.6577 4.54565 14.8491 4.11105 14.6991 3.72496L13.3009 4.26817ZM3.06276 11.8907C3.54226 11.2172 4.01932 10.2111 4.01932 8.98244H2.51932C2.51932 9.81771 2.19333 10.5256 1.84082 11.0207L3.06276 11.8907ZM4.01927 8.99105L4.03643 7.49572L2.53653 7.47851L2.51937 8.97384L4.01927 8.99105ZM14.1745 11.0448C13.8367 10.55 13.5183 9.83333 13.5183 8.98244H12.0183C12.0183 10.2097 12.4753 11.2162 12.9357 11.8906L14.1745 11.0448ZM13.5183 8.9915L13.5354 7.57027L12.0355 7.55216L12.0184 8.97339L13.5183 8.9915ZM13.5355 7.56121C13.5355 4.37437 11.1028 1.70668 8.00126 1.70668V3.20668C10.1843 3.20668 12.0355 5.10975 12.0355 7.56121H13.5355ZM13.2688 12.9107C13.8354 12.9107 14.1615 12.4912 14.2829 12.1868C14.4071 11.8755 14.4355 11.4271 14.1745 11.0448L12.9357 11.8906C12.847 11.7607 12.8786 11.6587 12.8897 11.6309C12.8995 11.6065 12.9233 11.5602 12.9797 11.5129C13.0416 11.461 13.1425 11.4107 13.2688 11.4107V12.9107ZM4.03648 7.48711C4.03648 5.07657 5.85661 3.20668 8.00126 3.20668V1.70668C4.9381 1.70668 2.53648 4.34119 2.53648 7.48711H4.03648ZM2.73442 11.4107C2.86332 11.4107 2.96541 11.463 3.02689 11.5155C3.08266 11.563 3.10531 11.609 3.1142 11.632C3.12365 11.6564 3.12939 11.6848 3.12706 11.7207C3.12469 11.7572 3.11196 11.8216 3.06276 11.8907L1.84082 11.0207C1.56773 11.4043 1.59416 11.8602 1.71527 12.1733C1.83337 12.4785 2.15845 12.9107 2.73442 12.9107V11.4107ZM13.2688 11.4107H2.73442V12.9107H13.2688V11.4107ZM6.1267 15.1501H9.87582V13.6501H6.1267V15.1501ZM2.69615 4.28218C3.04592 3.40964 3.66778 2.69137 4.4678 2.26038L3.75638 0.939816C2.62674 1.54838 1.77542 2.54766 1.30385 3.72406L2.69615 4.28218ZM11.5103 2.26303C12.3368 2.71968 12.9734 3.42508 13.3009 4.26817L14.6991 3.72496C14.2352 2.53085 13.3468 1.56398 12.2357 0.9501L11.5103 2.26303Z" fill="white"/>
</svg>
