<svg width="24" height="24" viewBox="0 0 24 24" fill="none" xmlns="http://www.w3.org/2000/svg">
<path d="M22.3011 23.5864C23.0112 23.5864 23.5775 23.0109 23.5775 22.3095V1.69052C23.5775 0.980139 23.0022 0.413635 22.3011 0.413635H1.68986C0.988733 0.413635 0.413452 0.989132 0.413452 1.69052V22.3095C0.413452 23.0199 0.988733 23.5864 1.68986 23.5864H22.3011Z" fill="#157DC3"/>
<path d="M16.3955 23.5864V14.6122H19.4067L19.8561 11.1143H16.3955V8.88422C16.3955 7.86811 16.6741 7.18471 18.1303 7.18471H19.982V4.04646C19.6584 4.0015 18.5618 3.91158 17.2854 3.91158C14.6157 3.91158 12.791 5.53915 12.791 8.53353V11.1143H9.77075V14.6122H12.791V23.5864H16.3955Z" fill="white"/>
</svg>
