<svg width="16" height="16" viewBox="0 0 16 16" fill="none" xmlns="http://www.w3.org/2000/svg">
<path fill-rule="evenodd" clip-rule="evenodd" d="M11.0667 4.36667C10.2333 3.57334 9.17999 3.16667 7.99999 3.16667C5.91333 3.16667 4.14668 4.57332 3.51333 6.47329V6.47333C3.35333 6.95333 3.26 7.46666 3.26 8C3.26 8.53333 3.34667 9.04666 3.51333 9.52666L3.51332 9.52667C4.14665 11.4267 5.91332 12.8333 7.99999 12.8333C9.07999 12.8333 9.99332 12.54 10.7133 12.06L10.7133 12.06V12.06C11.5533 11.4933 12.12 10.66 12.3133 9.67332H8V6.66666H15.5333C15.6133 7.15332 15.66 7.65332 15.66 8.17999C15.66 10.6133 14.7933 12.6667 13.2867 14.06H13.2866L13.2867 14.06C11.9667 15.28 10.16 16 7.99999 16C4.87332 16 2.17332 14.2 0.859985 11.5867V11.5866C0.313327 10.5066 0 9.29332 0 8C0 6.70667 0.31333 5.49334 0.859993 4.41334L0.859985 4.41334C2.17332 1.8 4.87332 0 7.99999 0C10.16 0 11.9667 0.793334 13.3467 2.08667L11.0667 4.36667Z" fill="white"/>
</svg>
