<svg width="24" height="24" viewBox="0 0 24 24" fill="none" xmlns="http://www.w3.org/2000/svg">
<path d="M19.29 14.6374V9.71903V9.50753L14.8284 5.01423L14.8284 5.01422C13.4951 3.67141 12.8284 3 12 3C11.1716 3 10.5049 3.67141 9.17157 5.01423L4.70999 9.50755V9.71903V14.6374C4.70999 17.5321 6.68841 20.046 9.48673 20.7071C11.1398 21.0976 12.8602 21.0976 14.5132 20.7071C17.3116 20.046 19.29 17.5321 19.29 14.6374Z" fill="#636874" fill-opacity="0.15"/>
<path d="M14.5132 20.7071L14.3983 20.2205L14.5132 20.7071ZM9.48673 20.7071L9.60169 20.2205H9.60169L9.48673 20.7071ZM14.8284 5.01423L15.1832 4.66193L15.1709 4.64949L15.1577 4.63794L14.8284 5.01423ZM14.8284 5.01422L14.4736 5.36652L14.486 5.37896L14.4992 5.39051L14.8284 5.01422ZM9.17157 5.01423L9.52638 5.36653H9.52638L9.17157 5.01423ZM9.71842 18.3203L9.22701 18.2281L9.71842 18.3203ZM9.73776 18.2173L10.2292 18.3095V18.3095L9.73776 18.2173ZM14.2622 18.2173L13.7708 18.3095L13.7708 18.3095L14.2622 18.2173ZM14.2816 18.3203L14.773 18.2281L14.773 18.2281L14.2816 18.3203ZM13.9918 20.5519L14.4433 20.7668L13.9918 20.5519ZM13.4235 20.5824C13.3049 20.8318 13.4108 21.1301 13.6601 21.2488C13.9095 21.3674 14.2078 21.2615 14.3265 21.0121L13.4235 20.5824ZM10.0082 20.5519L9.55674 20.7668L9.55674 20.7668L10.0082 20.5519ZM9.67352 21.0121C9.79218 21.2615 10.0905 21.3674 10.3399 21.2488C10.5892 21.1301 10.6951 20.8318 10.5765 20.5824L9.67352 21.0121ZM11.3611 16.4426L11.2274 15.9608L11.2274 15.9608L11.3611 16.4426ZM12.6389 16.4426L12.7726 15.9608V15.9608L12.6389 16.4426ZM2.6452 10.8774C2.45063 11.0734 2.45175 11.3899 2.6477 11.5845C2.84365 11.7791 3.16024 11.778 3.3548 11.582L2.6452 10.8774ZM20.6452 11.582C20.8398 11.778 21.1563 11.7791 21.3523 11.5845C21.5483 11.3899 21.5494 11.0734 21.3548 10.8774L20.6452 11.582ZM18.79 9.71903V14.6374H19.79V9.71903H18.79ZM5.20999 14.6374V9.71903H4.20999V14.6374H5.20999ZM14.3983 20.2205C12.8208 20.5932 11.1792 20.5932 9.60169 20.2205L9.37178 21.1937C11.1004 21.6021 12.8995 21.6021 14.6282 21.1937L14.3983 20.2205ZM9.60169 20.2205C7.0312 19.6133 5.20999 17.3025 5.20999 14.6374H4.20999C4.20999 17.7617 6.34561 20.4788 9.37178 21.1937L9.60169 20.2205ZM14.6282 21.1937C17.6544 20.4788 19.79 17.7617 19.79 14.6374H18.79C18.79 17.3025 16.9688 19.6133 14.3983 20.2205L14.6282 21.1937ZM15.1577 4.63794L15.1577 4.63793L14.4992 5.39051L14.4992 5.39052L15.1577 4.63794ZM15.1832 4.66192C14.5265 4.00057 13.9993 3.46806 13.5295 3.10708C13.0484 2.73736 12.5686 2.5 12 2.5V3.5C12.2598 3.5 12.5276 3.59834 12.9202 3.90003C13.3242 4.21046 13.797 4.68506 14.4736 5.36652L15.1832 4.66192ZM9.52638 5.36653C10.203 4.68506 10.6758 4.21046 11.0798 3.90003C11.4724 3.59834 11.7402 3.5 12 3.5V2.5C11.4314 2.5 10.9516 2.73736 10.4705 3.10709C10.0007 3.46806 9.47345 4.00057 8.81677 4.66193L9.52638 5.36653ZM10.2098 18.4125L10.2292 18.3095L9.24635 18.125L9.22701 18.2281L10.2098 18.4125ZM13.7708 18.3095L13.7902 18.4125L14.773 18.2281L14.7537 18.125L13.7708 18.3095ZM13.5403 20.337L13.4235 20.5824L14.3265 21.0121L14.4433 20.7668L13.5403 20.337ZM9.55674 20.7668L9.67352 21.0121L10.5765 20.5824L10.4597 20.337L9.55674 20.7668ZM13.7902 18.4125C13.9126 19.0646 13.8249 19.7389 13.5403 20.337L14.4433 20.7668C14.819 19.9773 14.9344 19.0879 14.773 18.2281L13.7902 18.4125ZM9.22701 18.2281C9.06561 19.0879 9.18105 19.9773 9.55674 20.7668L10.4597 20.337C10.1751 19.7389 10.0874 19.0646 10.2098 18.4125L9.22701 18.2281ZM11.4947 16.9243C11.8254 16.8326 12.1746 16.8326 12.5053 16.9243L12.7726 15.9608C12.267 15.8205 11.733 15.8205 11.2274 15.9608L11.4947 16.9243ZM14.7537 18.125C14.5583 17.084 13.7909 16.2433 12.7726 15.9608L12.5053 16.9243C13.153 17.1041 13.6452 17.6404 13.7708 18.3095L14.7537 18.125ZM10.2292 18.3095C10.3548 17.6404 10.847 17.1041 11.4947 16.9243L11.2274 15.9608C10.2091 16.2433 9.44175 17.084 9.24635 18.125L10.2292 18.3095ZM8.81677 4.66193L4.35519 9.15525L5.0648 9.85985L9.52638 5.36653L8.81677 4.66193ZM4.35519 9.15525L2.6452 10.8774L3.3548 11.582L5.0648 9.85985L4.35519 9.15525ZM5.20999 9.71903V9.50755H4.20999V9.71903H5.20999ZM14.4736 5.36653L18.9352 9.85983L19.6448 9.15523L15.1832 4.66193L14.4736 5.36653ZM18.9352 9.85983L20.6452 11.582L21.3548 10.8774L19.6448 9.15523L18.9352 9.85983ZM19.79 9.71903V9.50753H18.79V9.71903H19.79Z" fill="#636874"/>
</svg>
