<svg width="22" height="22" viewBox="0 0 22 22" fill="none" xmlns="http://www.w3.org/2000/svg">
<path d="M6.43723 9.90865C6.22509 10.0854 6.19643 10.4007 6.37321 10.6129C6.55 10.825 6.86528 10.8537 7.07742 10.6769L6.43723 9.90865ZM11 6.7572L11.3201 6.37309C11.1347 6.21857 10.8653 6.21857 10.6799 6.37309L11 6.7572ZM14.9226 10.6769C15.1347 10.8537 15.45 10.825 15.6268 10.6129C15.8036 10.4007 15.7749 10.0854 15.5628 9.90865L14.9226 10.6769ZM10.5 15.2425C10.5 15.5187 10.7239 15.7425 11 15.7425C11.2761 15.7425 11.5 15.5187 11.5 15.2425H10.5ZM7.07742 10.6769L11.3201 7.14131L10.6799 6.37309L6.43723 9.90865L7.07742 10.6769ZM10.6799 7.14131L14.9226 10.6769L15.5628 9.90865L11.3201 6.37309L10.6799 7.14131ZM10.5 6.7572L10.5 15.2425H11.5L11.5 6.7572H10.5ZM17.4347 4.56523C20.9885 8.119 20.9885 13.8808 17.4347 17.4346L18.1418 18.1417C22.0861 14.1974 22.0861 7.80242 18.1418 3.85812L17.4347 4.56523ZM17.4347 17.4346C13.8809 20.9883 8.11912 20.9883 4.56535 17.4346L3.85825 18.1417C7.80254 22.086 14.1975 22.086 18.1418 18.1417L17.4347 17.4346ZM4.56535 17.4346C1.01158 13.8808 1.01158 8.119 4.56535 4.56523L3.85825 3.85812C-0.0860493 7.80242 -0.0860493 14.1974 3.85825 18.1417L4.56535 17.4346ZM4.56535 4.56523C8.11912 1.01146 13.8809 1.01146 17.4347 4.56523L18.1418 3.85812C14.1975 -0.0861714 7.80254 -0.0861714 3.85825 3.85812L4.56535 4.56523Z" fill="#FB4B4B"/>
</svg>
