<svg width="22" height="22" viewBox="0 0 22 22" fill="none" xmlns="http://www.w3.org/2000/svg">
<path d="M15.5628 12.0914C15.7749 11.9146 15.8036 11.5993 15.6268 11.3871C15.45 11.175 15.1347 11.1463 14.9226 11.3231L15.5628 12.0914ZM11 15.2428L10.6799 15.6269C10.8653 15.7814 11.1347 15.7814 11.3201 15.6269L11 15.2428ZM7.07743 11.3231C6.86529 11.1463 6.55001 11.175 6.37323 11.3871C6.19644 11.5993 6.22511 11.9146 6.43724 12.0913L7.07743 11.3231ZM11.5 6.75746C11.5 6.48131 11.2761 6.25746 11 6.25746C10.7239 6.25746 10.5 6.48131 10.5 6.75746L11.5 6.75746ZM14.9226 11.3231L10.6799 14.8587L11.3201 15.6269L15.5628 12.0914L14.9226 11.3231ZM11.3201 14.8587L7.07743 11.3231L6.43724 12.0913L10.6799 15.6269L11.3201 14.8587ZM11.5 15.2428L11.5 6.75746L10.5 6.75746L10.5 15.2428L11.5 15.2428ZM4.56531 17.4348C1.01153 13.881 1.01153 8.1192 4.56531 4.56543L3.8582 3.85832C-0.0860947 7.80261 -0.0860953 14.1976 3.8582 18.1419L4.56531 17.4348ZM4.56531 4.56543C8.11908 1.01165 13.8809 1.01166 17.4346 4.56543L18.1418 3.85832C14.1975 -0.0859743 7.8025 -0.0859749 3.8582 3.85832L4.56531 4.56543ZM17.4346 4.56543C20.9884 8.1192 20.9884 13.881 17.4346 17.4348L18.1418 18.1419C22.086 14.1976 22.0861 7.80262 18.1418 3.85832L17.4346 4.56543ZM17.4346 17.4348C13.8809 20.9885 8.11908 20.9885 4.56531 17.4348L3.8582 18.1419C7.80249 22.0862 14.1975 22.0862 18.1418 18.1419L17.4346 17.4348Z" fill="#20A856"/>
</svg>
