<svg width="50" height="50" viewBox="0 0 50 50" fill="none" xmlns="http://www.w3.org/2000/svg">
<path d="M0 15C0 6.71573 6.71573 0 15 0H35C43.2843 0 50 6.71573 50 15V35C50 43.2843 43.2843 50 35 50H15C6.71573 50 0 43.2843 0 35V15Z" fill="url(#paint0_linear_75_2622)"/>
<path fill-rule="evenodd" clip-rule="evenodd" d="M22.1946 19.9598C21.7079 20.2592 21.2858 20.6491 20.8656 21.0371L20.7697 21.1256C19.679 22.1306 18.2223 22.7444 16.6222 22.7444C13.241 22.7444 10.5 20.0034 10.5 16.6222C10.5 13.241 13.241 10.5 16.6222 10.5C18.4121 10.5 20.0226 11.2681 21.142 12.4927C21.4463 12.8255 21.7536 13.1583 22.111 13.4333C23.8142 14.7434 26.1858 14.7434 27.889 13.4333C28.2464 13.1583 28.5537 12.8255 28.858 12.4927C29.9774 11.2681 31.5879 10.5 33.3778 10.5C36.759 10.5 39.5 13.241 39.5 16.6222C39.5 18.2223 38.8862 19.679 37.8812 20.7697C37.8802 20.7707 37.8793 20.7718 37.8783 20.7728C37.8498 20.8037 37.8212 20.8347 37.7927 20.8656C37.4046 21.2858 37.0148 21.7079 36.7153 22.1946C35.6566 23.915 35.6566 26.085 36.7153 27.8054C37.0148 28.2921 37.4046 28.7142 37.7927 29.1344C37.8222 29.1664 37.8517 29.1983 37.8812 29.2303C38.8862 30.321 39.5 31.7777 39.5 33.3778C39.5 36.759 36.759 39.5 33.3778 39.5C29.9966 39.5 27.2556 36.759 27.2556 33.3778C27.2556 31.5879 28.0237 29.9774 29.2482 28.858C29.581 28.5537 29.9139 28.2464 30.1888 27.889C31.499 26.1858 31.499 23.8142 30.1888 22.111C29.9139 21.7536 29.581 21.4463 29.2482 21.142C29.2394 21.134 29.2306 21.1259 29.2218 21.1178L29.1344 21.0371C28.7142 20.6491 28.2921 20.2592 27.8054 19.9598C26.085 18.901 23.915 18.901 22.1946 19.9598ZM22.7444 33.3778C22.7444 36.759 20.0034 39.5 16.6222 39.5C13.241 39.5 10.5 36.759 10.5 33.3778C10.5 29.9966 13.241 27.2556 16.6222 27.2556C20.0034 27.2556 22.7444 29.9966 22.7444 33.3778Z" fill="white"/>
<defs>
<linearGradient id="paint0_linear_75_2622" x1="45.125" y1="3.25" x2="4.125" y2="46.5" gradientUnits="userSpaceOnUse">
<stop stop-color="#9582EE"/>
<stop offset="0.505" stop-color="#6E53FA"/>
<stop offset="1" stop-color="#9582EE"/>
</linearGradient>
</defs>
</svg>
