<svg width="16" height="16" viewBox="0 0 16 16" fill="none" xmlns="http://www.w3.org/2000/svg">
<path d="M3.98313 11.0123C4.70506 11.0123 5.36933 10.752 5.88747 10.3193L8.06551 11.5066C8.04081 11.6644 8.02365 11.8237 8.02365 11.987C8.02365 13.6479 9.36387 15 11.0102 15C12.6564 15 13.9967 13.6479 13.9967 11.987C13.9967 10.3262 12.6564 8.97409 11.0102 8.97409C10.0302 8.97409 9.1601 9.45595 8.61586 10.1953L6.73629 9.17071C6.88726 8.81072 6.97166 8.4154 6.97166 8.00069C6.97166 7.586 6.88726 7.1893 6.73629 6.82722L8.61586 5.8012C9.16074 6.54198 10.0302 7.02591 11.0135 7.02591C12.6598 7.02591 14 5.67382 14 4.01296C14 2.35209 12.6598 1 11.0135 1C9.36721 1 8.02699 2.35209 8.02699 4.01296C8.02699 4.17634 8.04277 4.3335 8.06748 4.48996L5.88733 5.67935C5.37059 5.24665 4.70838 4.98843 3.98651 4.98843C2.34022 4.98843 1 6.34052 1 8.00138C1 9.66225 2.34022 11.0143 3.98651 11.0143L3.98313 11.0123ZM11.0102 10.392C11.8817 10.392 12.5913 11.1078 12.5913 11.9871C12.5913 12.8663 11.8817 13.5822 11.0102 13.5822C10.1387 13.5822 9.42911 12.8663 9.42911 11.9871C9.42911 11.1078 10.1387 10.392 11.0102 10.392ZM11.0102 2.4165C11.8817 2.4165 12.5913 3.13236 12.5913 4.01159C12.5913 4.89082 11.8817 5.60669 11.0102 5.60669C10.1387 5.60669 9.42911 4.89082 9.42911 4.01159C9.42911 3.13236 10.1387 2.4165 11.0102 2.4165ZM3.98313 6.40423C4.85465 6.40423 5.56423 7.12009 5.56423 7.99933C5.56423 8.87856 4.85465 9.59442 3.98313 9.59442C3.11162 9.59442 2.40204 8.87856 2.40204 7.99933C2.40204 7.12009 3.11162 6.40423 3.98313 6.40423Z" fill="#8C91B0"/>
</svg>
