<svg width="15" height="9" viewBox="0 0 15 9" fill="none" xmlns="http://www.w3.org/2000/svg">
<path d="M0.0630317 0.850188C0.709262 2.13014 1.73336 3.21445 3.0253 3.98733L1.43925 5.5734C1.21044 5.80221 1.21044 6.1732 1.43922 6.40203C1.66806 6.63084 2.03902 6.63084 2.26788 6.40203L4.12856 4.5413C5.00553 4.90426 5.94684 5.12258 6.91408 5.18542L6.91408 7.84119C6.91408 8.1648 7.1764 8.42712 7.50001 8.42712C7.82363 8.42712 8.08595 8.1648 8.08595 7.84119L8.08595 5.18545C9.05319 5.12261 9.9945 4.90429 10.8715 4.54133L12.7321 6.40207C12.961 6.6309 13.332 6.6309 13.5608 6.40207C13.7896 6.17326 13.7896 5.80227 13.5608 5.57343L11.9747 3.98736C13.2667 3.21448 14.2908 2.13017 14.937 0.850219C15.0828 0.561323 14.9669 0.20894 14.678 0.0630704C14.3892 -0.0827988 14.0367 0.0331295 13.8909 0.322026C12.804 2.47467 10.3819 4.03259 7.49998 4.03259C4.61585 4.03259 2.19499 2.4728 1.10911 0.321995C0.963002 0.0326301 0.610414 -0.0825942 0.321987 0.0630405C0.03309 0.20891 -0.0828667 0.561321 0.0630317 0.850188Z" fill="#636874"/>
</svg>
