<svg width="15" height="12" viewBox="0 0 15 12" fill="none" xmlns="http://www.w3.org/2000/svg">
<path d="M7.4997 6.32812C6.04584 6.32812 4.86304 7.51096 4.86304 8.96484C4.86304 10.4187 6.04584 11.6016 7.4997 11.6016C8.95357 11.6016 10.1364 10.4187 10.1364 8.96484C10.1364 7.51096 8.95357 6.32812 7.4997 6.32812ZM7.4997 10.4297C6.69199 10.4297 6.03489 9.77256 6.03489 8.96484C6.03489 8.15713 6.69199 7.5 7.4997 7.5C8.30742 7.5 8.96452 8.15713 8.96452 8.96484C8.96452 9.77256 8.30742 10.4297 7.4997 10.4297Z" fill="#636874"/>
<path d="M14.937 7.57693C14.2907 6.29698 13.2666 5.21268 11.9747 4.4398L13.5607 2.85372C13.7896 2.62491 13.7896 2.25393 13.5608 2.02509C13.3319 1.79628 12.961 1.79628 12.7321 2.02509L10.8714 3.88582C9.99447 3.52286 9.05316 3.30454 8.08592 3.2417V0.585938C8.08592 0.262324 7.8236 0 7.49999 0C7.17637 0 6.91405 0.262324 6.91405 0.585938V3.24167C5.94681 3.30451 5.0055 3.52283 4.12853 3.88579L2.26786 2.02506C2.03902 1.79622 1.668 1.79622 1.4392 2.02506C1.21042 2.25387 1.21042 2.62485 1.43922 2.85369L3.02527 4.43977C1.73334 5.21265 0.709235 6.29695 0.0630041 7.5769C-0.0828358 7.8658 0.0331213 8.21818 0.321988 8.36405C0.610768 8.50992 0.963297 8.39399 1.10911 8.1051C2.19596 5.95245 4.61805 4.39453 7.50002 4.39453C10.3841 4.39453 12.805 5.95433 13.8909 8.10513C14.037 8.39449 14.3896 8.50972 14.678 8.36408C14.9669 8.21821 15.0829 7.8658 14.937 7.57693Z" fill="#636874"/>
</svg>
